<svg  width="250" height="100" id="Capa_1" enable-background="new 0 0 300 300"  viewBox="0 0 512 512"  xmlns="http://www.w3.org/2000/svg"><g><path d="m376 28.534c-70.2 0-106.099 54.575-120 81.015-13.9-26.438-49.8-81.015-120-81.015-78.916 0-136 66.356-136 146.515 0 106.602 100.357 172.238 256 308.416 155.871-136.378 256-201.829 256-308.416 0-80.197-57.122-146.515-136-146.515z" fill="#ff641a"/><path d="m512 175.049c0-80.198-57.122-146.515-136-146.515-70.199 0-106.099 54.575-120 81.015v373.916c155.871-136.377 256-201.828 256-308.416z" fill="#f03800"/></g></svg>